{
	"asset":{
		"generator":"Khronos glTF Blender I/O v5.1.20",
		"version":"2.0"
	},
	"scene":0,
	"scenes":[
		{
			"name":"Scene",
			"nodes":[
				0
			]
		}
	],
	"nodes":[
		{
			"mesh":0,
			"name":"Cube.001",
			"translation":[
				0,
				0,
				0.17668375372886658
			]
		}
	],
	"materials":[
		{
			"doubleSided":true,
			"name":"Cube.001_BAKED",
			"pbrMetallicRoughness":{
				"baseColorTexture":{
					"index":0,
					"texCoord":1
				},
				"metallicFactor":0,
				"metallicRoughnessTexture":{
					"index":1,
					"texCoord":1
				}
			}
		}
	],
	"meshes":[
		{
			"name":"Cube.002",
			"primitives":[
				{
					"attributes":{
						"POSITION":0,
						"NORMAL":1,
						"TEXCOORD_0":2,
						"TEXCOORD_1":3
					},
					"indices":4,
					"material":0
				},
				{
					"attributes":{
						"POSITION":5,
						"NORMAL":6,
						"TEXCOORD_0":7,
						"TEXCOORD_1":8
					},
					"indices":9,
					"material":0
				}
			]
		}
	],
	"textures":[
		{
			"sampler":0,
			"source":0
		},
		{
			"sampler":0,
			"source":1
		}
	],
	"images":[
		{
			"mimeType":"image/png",
			"name":"Cube.001_t",
			"uri":"Cube.001_t.png"
		},
		{
			"mimeType":"image/png",
			"name":"Cube.001_r",
			"uri":"Cube.001_r.png"
		}
	],
	"accessors":[
		{
			"bufferView":0,
			"componentType":5126,
			"count":3724,
			"max":[
				1.773564100265503,
				1.773564100265503,
				0.1768442541360855
			],
			"min":[
				-1.773564100265503,
				-1.773564100265503,
				-0.49869269132614136
			],
			"type":"VEC3"
		},
		{
			"bufferView":1,
			"componentType":5126,
			"count":3724,
			"type":"VEC3"
		},
		{
			"bufferView":2,
			"componentType":5126,
			"count":3724,
			"type":"VEC2"
		},
		{
			"bufferView":3,
			"componentType":5126,
			"count":3724,
			"type":"VEC2"
		},
		{
			"bufferView":4,
			"componentType":5123,
			"count":7056,
			"type":"SCALAR"
		},
		{
			"bufferView":5,
			"componentType":5126,
			"count":2304,
			"max":[
				1.5682001113891602,
				1.5678620338439941,
				-0.12249431014060974
			],
			"min":[
				-1.5682001113891602,
				-1.5678620338439941,
				-0.23413807153701782
			],
			"type":"VEC3"
		},
		{
			"bufferView":6,
			"componentType":5126,
			"count":2304,
			"type":"VEC3"
		},
		{
			"bufferView":7,
			"componentType":5126,
			"count":2304,
			"type":"VEC2"
		},
		{
			"bufferView":8,
			"componentType":5126,
			"count":2304,
			"type":"VEC2"
		},
		{
			"bufferView":9,
			"componentType":5123,
			"count":3936,
			"type":"SCALAR"
		}
	],
	"bufferViews":[
		{
			"buffer":0,
			"byteLength":44688,
			"byteOffset":0,
			"target":34962
		},
		{
			"buffer":0,
			"byteLength":44688,
			"byteOffset":44688,
			"target":34962
		},
		{
			"buffer":0,
			"byteLength":29792,
			"byteOffset":89376,
			"target":34962
		},
		{
			"buffer":0,
			"byteLength":29792,
			"byteOffset":119168,
			"target":34962
		},
		{
			"buffer":0,
			"byteLength":14112,
			"byteOffset":148960,
			"target":34963
		},
		{
			"buffer":0,
			"byteLength":27648,
			"byteOffset":163072,
			"target":34962
		},
		{
			"buffer":0,
			"byteLength":27648,
			"byteOffset":190720,
			"target":34962
		},
		{
			"buffer":0,
			"byteLength":18432,
			"byteOffset":218368,
			"target":34962
		},
		{
			"buffer":0,
			"byteLength":18432,
			"byteOffset":236800,
			"target":34962
		},
		{
			"buffer":0,
			"byteLength":7872,
			"byteOffset":255232,
			"target":34963
		}
	],
	"samplers":[
		{
			"magFilter":9729,
			"minFilter":9987
		}
	],
	"buffers":[
		{
			"byteLength":263104,
			"uri":"Black.bin"
		}
	]
}
