{
	"asset":{
		"generator":"Khronos glTF Blender I/O v5.1.20",
		"version":"2.0"
	},
	"scene":0,
	"scenes":[
		{
			"name":"Scene",
			"nodes":[
				0,
				1
			]
		}
	],
	"nodes":[
		{
			"mesh":0,
			"name":"Sphere.002",
			"rotation":[
				0.7071068286895752,
				0,
				0,
				0.7071068286895752
			],
			"scale":[
				0.11208634823560715,
				0.11208634823560715,
				0.11208634823560715
			],
			"translation":[
				-0.3208712339401245,
				-0.6528828144073486,
				0.39626285433769226
			]
		},
		{
			"mesh":1,
			"name":"Cube.003"
		}
	],
	"materials":[
		{
			"doubleSided":true,
			"name":"Material.005",
			"pbrMetallicRoughness":{
				"baseColorFactor":[
					0.3882955312728882,
					0.3882955312728882,
					0.3882955312728882,
					1
				],
				"roughnessFactor":0.2590909004211426
			}
		},
		{
			"doubleSided":true,
			"name":"Cube.003_BAKED",
			"pbrMetallicRoughness":{
				"baseColorTexture":{
					"index":0,
					"texCoord":1
				},
				"metallicFactor":0,
				"metallicRoughnessTexture":{
					"index":1,
					"texCoord":1
				}
			}
		}
	],
	"meshes":[
		{
			"name":"Sphere.002",
			"primitives":[
				{
					"attributes":{
						"POSITION":0,
						"NORMAL":1,
						"TEXCOORD_0":2
					},
					"indices":3,
					"material":0
				}
			]
		},
		{
			"name":"Cube.004",
			"primitives":[
				{
					"attributes":{
						"POSITION":4,
						"NORMAL":5,
						"TEXCOORD_0":6,
						"TEXCOORD_1":7
					},
					"indices":8,
					"material":1
				},
				{
					"attributes":{
						"POSITION":9,
						"NORMAL":10,
						"TEXCOORD_0":11,
						"TEXCOORD_1":12
					},
					"indices":13,
					"material":1
				},
				{
					"attributes":{
						"POSITION":14,
						"NORMAL":15,
						"TEXCOORD_0":16,
						"TEXCOORD_1":17
					},
					"indices":18,
					"material":1
				},
				{
					"attributes":{
						"POSITION":19,
						"NORMAL":20,
						"TEXCOORD_0":21,
						"TEXCOORD_1":22
					},
					"indices":23,
					"material":1
				}
			]
		}
	],
	"textures":[
		{
			"sampler":0,
			"source":0
		},
		{
			"sampler":0,
			"source":1
		}
	],
	"images":[
		{
			"mimeType":"image/png",
			"name":"Cube.003_t",
			"uri":"Cube.003_t.png"
		},
		{
			"mimeType":"image/png",
			"name":"Cube.003_r",
			"uri":"Cube.003_r.png"
		}
	],
	"accessors":[
		{
			"bufferView":0,
			"componentType":5126,
			"count":18447,
			"max":[
				12.027872085571289,
				0.9108992218971252,
				3.71089768409729
			],
			"min":[
				-6.473914623260498,
				-0.9109001755714417,
				-15.052377700805664
			],
			"type":"VEC3"
		},
		{
			"bufferView":1,
			"componentType":5126,
			"count":18447,
			"type":"VEC3"
		},
		{
			"bufferView":2,
			"componentType":5126,
			"count":18447,
			"type":"VEC2"
		},
		{
			"bufferView":3,
			"componentType":5123,
			"count":95040,
			"type":"SCALAR"
		},
		{
			"bufferView":4,
			"componentType":5126,
			"count":1536,
			"max":[
				1.9212790727615356,
				1.430303931236267,
				0.402035117149353
			],
			"min":[
				-1.9212790727615356,
				-1.430303931236267,
				-0.402035117149353
			],
			"type":"VEC3"
		},
		{
			"bufferView":5,
			"componentType":5126,
			"count":1536,
			"type":"VEC3"
		},
		{
			"bufferView":6,
			"componentType":5126,
			"count":1536,
			"type":"VEC2"
		},
		{
			"bufferView":7,
			"componentType":5126,
			"count":1536,
			"type":"VEC2"
		},
		{
			"bufferView":8,
			"componentType":5123,
			"count":2256,
			"type":"SCALAR"
		},
		{
			"bufferView":9,
			"componentType":5126,
			"count":6108,
			"max":[
				0.954818844795227,
				0.9141168594360352,
				0.20530004799365997
			],
			"min":[
				-0.9466748237609863,
				-0.9070607423782349,
				0.1739140748977661
			],
			"type":"VEC3"
		},
		{
			"bufferView":10,
			"componentType":5126,
			"count":6108,
			"type":"VEC3"
		},
		{
			"bufferView":11,
			"componentType":5126,
			"count":6108,
			"type":"VEC2"
		},
		{
			"bufferView":12,
			"componentType":5126,
			"count":6108,
			"type":"VEC2"
		},
		{
			"bufferView":13,
			"componentType":5123,
			"count":22206,
			"type":"SCALAR"
		},
		{
			"bufferView":14,
			"componentType":5126,
			"count":1475,
			"max":[
				0.951251745223999,
				0.9105497598648071,
				0.1759243905544281
			],
			"min":[
				-0.9457971453666687,
				-0.9034936428070068,
				0.1733061820268631
			],
			"type":"VEC3"
		},
		{
			"bufferView":15,
			"componentType":5126,
			"count":1475,
			"type":"VEC3"
		},
		{
			"bufferView":16,
			"componentType":5126,
			"count":1475,
			"type":"VEC2"
		},
		{
			"bufferView":17,
			"componentType":5126,
			"count":1475,
			"type":"VEC2"
		},
		{
			"bufferView":18,
			"componentType":5123,
			"count":6342,
			"type":"SCALAR"
		},
		{
			"bufferView":19,
			"componentType":5126,
			"count":30468,
			"max":[
				1.7016606330871582,
				1.2071105241775513,
				0.40203365683555603
			],
			"min":[
				-1.7016606330871582,
				-1.2071104049682617,
				-0.402035117149353
			],
			"type":"VEC3"
		},
		{
			"bufferView":20,
			"componentType":5126,
			"count":30468,
			"type":"VEC3"
		},
		{
			"bufferView":21,
			"componentType":5126,
			"count":30468,
			"type":"VEC2"
		},
		{
			"bufferView":22,
			"componentType":5126,
			"count":30468,
			"type":"VEC2"
		},
		{
			"bufferView":23,
			"componentType":5123,
			"count":88230,
			"type":"SCALAR"
		}
	],
	"bufferViews":[
		{
			"buffer":0,
			"byteLength":221364,
			"byteOffset":0,
			"target":34962
		},
		{
			"buffer":0,
			"byteLength":221364,
			"byteOffset":221364,
			"target":34962
		},
		{
			"buffer":0,
			"byteLength":147576,
			"byteOffset":442728,
			"target":34962
		},
		{
			"buffer":0,
			"byteLength":190080,
			"byteOffset":590304,
			"target":34963
		},
		{
			"buffer":0,
			"byteLength":18432,
			"byteOffset":780384,
			"target":34962
		},
		{
			"buffer":0,
			"byteLength":18432,
			"byteOffset":798816,
			"target":34962
		},
		{
			"buffer":0,
			"byteLength":12288,
			"byteOffset":817248,
			"target":34962
		},
		{
			"buffer":0,
			"byteLength":12288,
			"byteOffset":829536,
			"target":34962
		},
		{
			"buffer":0,
			"byteLength":4512,
			"byteOffset":841824,
			"target":34963
		},
		{
			"buffer":0,
			"byteLength":73296,
			"byteOffset":846336,
			"target":34962
		},
		{
			"buffer":0,
			"byteLength":73296,
			"byteOffset":919632,
			"target":34962
		},
		{
			"buffer":0,
			"byteLength":48864,
			"byteOffset":992928,
			"target":34962
		},
		{
			"buffer":0,
			"byteLength":48864,
			"byteOffset":1041792,
			"target":34962
		},
		{
			"buffer":0,
			"byteLength":44412,
			"byteOffset":1090656,
			"target":34963
		},
		{
			"buffer":0,
			"byteLength":17700,
			"byteOffset":1135068,
			"target":34962
		},
		{
			"buffer":0,
			"byteLength":17700,
			"byteOffset":1152768,
			"target":34962
		},
		{
			"buffer":0,
			"byteLength":11800,
			"byteOffset":1170468,
			"target":34962
		},
		{
			"buffer":0,
			"byteLength":11800,
			"byteOffset":1182268,
			"target":34962
		},
		{
			"buffer":0,
			"byteLength":12684,
			"byteOffset":1194068,
			"target":34963
		},
		{
			"buffer":0,
			"byteLength":365616,
			"byteOffset":1206752,
			"target":34962
		},
		{
			"buffer":0,
			"byteLength":365616,
			"byteOffset":1572368,
			"target":34962
		},
		{
			"buffer":0,
			"byteLength":243744,
			"byteOffset":1937984,
			"target":34962
		},
		{
			"buffer":0,
			"byteLength":243744,
			"byteOffset":2181728,
			"target":34962
		},
		{
			"buffer":0,
			"byteLength":176460,
			"byteOffset":2425472,
			"target":34963
		}
	],
	"samplers":[
		{
			"magFilter":9729,
			"minFilter":9987
		}
	],
	"buffers":[
		{
			"byteLength":2601932,
			"uri":"Black.bin"
		}
	]
}
