{
	"asset":{
		"generator":"Khronos glTF Blender I/O v5.1.20",
		"version":"2.0"
	},
	"extensionsUsed":[
		"KHR_materials_transmission"
	],
	"scene":0,
	"scenes":[
		{
			"name":"Scene",
			"nodes":[
				0,
				1
			]
		}
	],
	"nodes":[
		{
			"mesh":0,
			"name":"Cube.001",
			"rotation":[
				0.7071068286895752,
				0,
				0,
				0.7071068286895752
			],
			"translation":[
				2.8782694339752197,
				0.6510912179946899,
				-0.8962788581848145
			]
		},
		{
			"mesh":1,
			"name":"Cube.004",
			"rotation":[
				0.7071068286895752,
				0,
				0,
				0.7071068286895752
			],
			"translation":[
				2.8853063583374023,
				-1.0458005666732788,
				-1.304213523864746
			]
		}
	],
	"materials":[
		{
			"alphaMode":"BLEND",
			"doubleSided":true,
			"extensions":{
				"KHR_materials_transmission":{
					"transmissionFactor":1
				}
			},
			"name":"Material.001",
			"pbrMetallicRoughness":{
				"baseColorFactor":[
					1,
					1,
					1,
					0.3954545557498932
				],
				"metallicFactor":0,
				"roughnessFactor":0
			}
		},
		{
			"doubleSided":true,
			"name":"Material.007",
			"pbrMetallicRoughness":{
				"roughnessFactor":0
			}
		},
		{
			"doubleSided":true,
			"name":"Material.009",
			"pbrMetallicRoughness":{
				"baseColorFactor":[
					0.2699420750141144,
					0.2699420750141144,
					0.2699420750141144,
					1
				],
				"metallicFactor":0.5181818008422852,
				"roughnessFactor":0.5
			}
		},
		{
			"doubleSided":true,
			"name":"Cube.004_BAKED",
			"pbrMetallicRoughness":{
				"baseColorTexture":{
					"index":0,
					"texCoord":1
				},
				"metallicFactor":0,
				"metallicRoughnessTexture":{
					"index":1,
					"texCoord":1
				}
			}
		}
	],
	"meshes":[
		{
			"name":"Cube.004",
			"primitives":[
				{
					"attributes":{
						"POSITION":0,
						"NORMAL":1,
						"TEXCOORD_0":2
					},
					"indices":3,
					"material":0
				},
				{
					"attributes":{
						"POSITION":4,
						"NORMAL":5,
						"TEXCOORD_0":6
					},
					"indices":7,
					"material":1
				},
				{
					"attributes":{
						"POSITION":8,
						"NORMAL":9,
						"TEXCOORD_0":10
					},
					"indices":11,
					"material":2
				}
			]
		},
		{
			"name":"Cube.003",
			"primitives":[
				{
					"attributes":{
						"POSITION":12,
						"NORMAL":13,
						"TEXCOORD_0":14,
						"TEXCOORD_1":15
					},
					"indices":16,
					"material":3
				},
				{
					"attributes":{
						"POSITION":17,
						"NORMAL":18,
						"TEXCOORD_0":19,
						"TEXCOORD_1":20
					},
					"indices":21,
					"material":3
				},
				{
					"attributes":{
						"POSITION":22,
						"NORMAL":23,
						"TEXCOORD_0":24,
						"TEXCOORD_1":25
					},
					"indices":26,
					"material":3
				},
				{
					"attributes":{
						"POSITION":27,
						"NORMAL":28,
						"TEXCOORD_0":29,
						"TEXCOORD_1":30
					},
					"indices":31,
					"material":3
				},
				{
					"attributes":{
						"POSITION":32,
						"NORMAL":33,
						"TEXCOORD_0":34,
						"TEXCOORD_1":35
					},
					"indices":36,
					"material":3
				}
			]
		}
	],
	"textures":[
		{
			"sampler":0,
			"source":0
		},
		{
			"sampler":0,
			"source":1
		}
	],
	"images":[
		{
			"mimeType":"image/png",
			"name":"Cube",
			"uri":"Cube.png"
		},
		{
			"mimeType":"image/png",
			"name":"Cube",
			"uri":"Cube-1.png"
		}
	],
	"accessors":[
		{
			"bufferView":0,
			"componentType":5126,
			"count":355,
			"max":[
				1.0690503120422363,
				0.04804675653576851,
				1.5940349102020264
			],
			"min":[
				-1.0690503120422363,
				-0.013809490948915482,
				-1.5940349102020264
			],
			"type":"VEC3"
		},
		{
			"bufferView":1,
			"componentType":5126,
			"count":355,
			"type":"VEC3"
		},
		{
			"bufferView":2,
			"componentType":5126,
			"count":355,
			"type":"VEC2"
		},
		{
			"bufferView":3,
			"componentType":5123,
			"count":1716,
			"type":"SCALAR"
		},
		{
			"bufferView":4,
			"componentType":5126,
			"count":342,
			"max":[
				1.0690503120422363,
				-0.8020598292350769,
				1.5940349102020264
			],
			"min":[
				-1.0690503120422363,
				-0.8639160990715027,
				-1.5940349102020264
			],
			"type":"VEC3"
		},
		{
			"bufferView":5,
			"componentType":5126,
			"count":342,
			"type":"VEC3"
		},
		{
			"bufferView":6,
			"componentType":5126,
			"count":342,
			"type":"VEC2"
		},
		{
			"bufferView":7,
			"componentType":5123,
			"count":1614,
			"type":"SCALAR"
		},
		{
			"bufferView":8,
			"componentType":5126,
			"count":36,
			"max":[
				1.057050347328186,
				-0.8639160990715027,
				1.582034945487976
			],
			"min":[
				-1.057050347328186,
				-0.8639160990715027,
				-1.582034945487976
			],
			"type":"VEC3"
		},
		{
			"bufferView":9,
			"componentType":5126,
			"count":36,
			"type":"VEC3"
		},
		{
			"bufferView":10,
			"componentType":5126,
			"count":36,
			"type":"VEC2"
		},
		{
			"bufferView":11,
			"componentType":5123,
			"count":102,
			"type":"SCALAR"
		},
		{
			"bufferView":12,
			"componentType":5126,
			"count":3916,
			"max":[
				1.029231071472168,
				0.6267126798629761,
				0.5427840948104858
			],
			"min":[
				-1.0292296409606934,
				-0.6267126798629761,
				-0.5160678625106812
			],
			"type":"VEC3"
		},
		{
			"bufferView":13,
			"componentType":5126,
			"count":3916,
			"type":"VEC3"
		},
		{
			"bufferView":14,
			"componentType":5126,
			"count":3916,
			"type":"VEC2"
		},
		{
			"bufferView":15,
			"componentType":5126,
			"count":3916,
			"type":"VEC2"
		},
		{
			"bufferView":16,
			"componentType":5123,
			"count":16182,
			"type":"SCALAR"
		},
		{
			"bufferView":17,
			"componentType":5126,
			"count":8254,
			"max":[
				0.21142436563968658,
				-0.5752914547920227,
				0.16675502061843872
			],
			"min":[
				-0.29647067189216614,
				-0.6284838318824768,
				-0.20203660428524017
			],
			"type":"VEC3"
		},
		{
			"bufferView":18,
			"componentType":5126,
			"count":8254,
			"type":"VEC3"
		},
		{
			"bufferView":19,
			"componentType":5126,
			"count":8254,
			"type":"VEC2"
		},
		{
			"bufferView":20,
			"componentType":5126,
			"count":8254,
			"type":"VEC2"
		},
		{
			"bufferView":21,
			"componentType":5123,
			"count":23082,
			"type":"SCALAR"
		},
		{
			"bufferView":22,
			"componentType":5126,
			"count":1322,
			"max":[
				0.25640612840652466,
				0.25640612840652466,
				-0.4650833010673523
			],
			"min":[
				-0.25640612840652466,
				-0.25640612840652466,
				-0.825411319732666
			],
			"type":"VEC3"
		},
		{
			"bufferView":23,
			"componentType":5126,
			"count":1322,
			"type":"VEC3"
		},
		{
			"bufferView":24,
			"componentType":5126,
			"count":1322,
			"type":"VEC2"
		},
		{
			"bufferView":25,
			"componentType":5126,
			"count":1322,
			"type":"VEC2"
		},
		{
			"bufferView":26,
			"componentType":5123,
			"count":4980,
			"type":"SCALAR"
		},
		{
			"bufferView":27,
			"componentType":5126,
			"count":122937,
			"max":[
				0.9703711271286011,
				0.6510398983955383,
				0.4882895350456238
			],
			"min":[
				-0.9721817970275879,
				0.5776955485343933,
				-0.46196237206459045
			],
			"type":"VEC3"
		},
		{
			"bufferView":28,
			"componentType":5126,
			"count":122937,
			"type":"VEC3"
		},
		{
			"bufferView":29,
			"componentType":5126,
			"count":122937,
			"type":"VEC2"
		},
		{
			"bufferView":30,
			"componentType":5126,
			"count":122937,
			"type":"VEC2"
		},
		{
			"bufferView":31,
			"componentType":5125,
			"count":523860,
			"type":"SCALAR"
		},
		{
			"bufferView":32,
			"componentType":5126,
			"count":341,
			"max":[
				0.1011820062994957,
				0.09575529396533966,
				-0.7620307803153992
			],
			"min":[
				-0.09679650515317917,
				-0.09575530886650085,
				-1.1364915370941162
			],
			"type":"VEC3"
		},
		{
			"bufferView":33,
			"componentType":5126,
			"count":341,
			"type":"VEC3"
		},
		{
			"bufferView":34,
			"componentType":5126,
			"count":341,
			"type":"VEC2"
		},
		{
			"bufferView":35,
			"componentType":5126,
			"count":341,
			"type":"VEC2"
		},
		{
			"bufferView":36,
			"componentType":5123,
			"count":1344,
			"type":"SCALAR"
		}
	],
	"bufferViews":[
		{
			"buffer":0,
			"byteLength":4260,
			"byteOffset":0,
			"target":34962
		},
		{
			"buffer":0,
			"byteLength":4260,
			"byteOffset":4260,
			"target":34962
		},
		{
			"buffer":0,
			"byteLength":2840,
			"byteOffset":8520,
			"target":34962
		},
		{
			"buffer":0,
			"byteLength":3432,
			"byteOffset":11360,
			"target":34963
		},
		{
			"buffer":0,
			"byteLength":4104,
			"byteOffset":14792,
			"target":34962
		},
		{
			"buffer":0,
			"byteLength":4104,
			"byteOffset":18896,
			"target":34962
		},
		{
			"buffer":0,
			"byteLength":2736,
			"byteOffset":23000,
			"target":34962
		},
		{
			"buffer":0,
			"byteLength":3228,
			"byteOffset":25736,
			"target":34963
		},
		{
			"buffer":0,
			"byteLength":432,
			"byteOffset":28964,
			"target":34962
		},
		{
			"buffer":0,
			"byteLength":432,
			"byteOffset":29396,
			"target":34962
		},
		{
			"buffer":0,
			"byteLength":288,
			"byteOffset":29828,
			"target":34962
		},
		{
			"buffer":0,
			"byteLength":204,
			"byteOffset":30116,
			"target":34963
		},
		{
			"buffer":0,
			"byteLength":46992,
			"byteOffset":30320,
			"target":34962
		},
		{
			"buffer":0,
			"byteLength":46992,
			"byteOffset":77312,
			"target":34962
		},
		{
			"buffer":0,
			"byteLength":31328,
			"byteOffset":124304,
			"target":34962
		},
		{
			"buffer":0,
			"byteLength":31328,
			"byteOffset":155632,
			"target":34962
		},
		{
			"buffer":0,
			"byteLength":32364,
			"byteOffset":186960,
			"target":34963
		},
		{
			"buffer":0,
			"byteLength":99048,
			"byteOffset":219324,
			"target":34962
		},
		{
			"buffer":0,
			"byteLength":99048,
			"byteOffset":318372,
			"target":34962
		},
		{
			"buffer":0,
			"byteLength":66032,
			"byteOffset":417420,
			"target":34962
		},
		{
			"buffer":0,
			"byteLength":66032,
			"byteOffset":483452,
			"target":34962
		},
		{
			"buffer":0,
			"byteLength":46164,
			"byteOffset":549484,
			"target":34963
		},
		{
			"buffer":0,
			"byteLength":15864,
			"byteOffset":595648,
			"target":34962
		},
		{
			"buffer":0,
			"byteLength":15864,
			"byteOffset":611512,
			"target":34962
		},
		{
			"buffer":0,
			"byteLength":10576,
			"byteOffset":627376,
			"target":34962
		},
		{
			"buffer":0,
			"byteLength":10576,
			"byteOffset":637952,
			"target":34962
		},
		{
			"buffer":0,
			"byteLength":9960,
			"byteOffset":648528,
			"target":34963
		},
		{
			"buffer":0,
			"byteLength":1475244,
			"byteOffset":658488,
			"target":34962
		},
		{
			"buffer":0,
			"byteLength":1475244,
			"byteOffset":2133732,
			"target":34962
		},
		{
			"buffer":0,
			"byteLength":983496,
			"byteOffset":3608976,
			"target":34962
		},
		{
			"buffer":0,
			"byteLength":983496,
			"byteOffset":4592472,
			"target":34962
		},
		{
			"buffer":0,
			"byteLength":2095440,
			"byteOffset":5575968,
			"target":34963
		},
		{
			"buffer":0,
			"byteLength":4092,
			"byteOffset":7671408,
			"target":34962
		},
		{
			"buffer":0,
			"byteLength":4092,
			"byteOffset":7675500,
			"target":34962
		},
		{
			"buffer":0,
			"byteLength":2728,
			"byteOffset":7679592,
			"target":34962
		},
		{
			"buffer":0,
			"byteLength":2728,
			"byteOffset":7682320,
			"target":34962
		},
		{
			"buffer":0,
			"byteLength":2688,
			"byteOffset":7685048,
			"target":34963
		}
	],
	"samplers":[
		{
			"magFilter":9729,
			"minFilter":9987
		}
	],
	"buffers":[
		{
			"byteLength":7687736,
			"uri":"Walnut1.bin"
		}
	]
}
