{
	"asset":{
		"generator":"Khronos glTF Blender I/O v5.1.20",
		"version":"2.0"
	},
	"scene":0,
	"scenes":[
		{
			"name":"Scene",
			"nodes":[
				0
			]
		}
	],
	"nodes":[
		{
			"mesh":0,
			"name":"Cube.005"
		}
	],
	"materials":[
		{
			"doubleSided":true,
			"name":"Cube.005_BAKED",
			"pbrMetallicRoughness":{
				"baseColorTexture":{
					"index":0,
					"texCoord":1
				},
				"metallicFactor":0,
				"metallicRoughnessTexture":{
					"index":1,
					"texCoord":1
				}
			}
		}
	],
	"meshes":[
		{
			"name":"Cube.003",
			"primitives":[
				{
					"attributes":{
						"POSITION":0,
						"NORMAL":1,
						"TEXCOORD_0":2,
						"TEXCOORD_1":3
					},
					"indices":4,
					"material":0
				},
				{
					"attributes":{
						"POSITION":5,
						"NORMAL":6,
						"TEXCOORD_0":7,
						"TEXCOORD_1":8
					},
					"indices":9,
					"material":0
				},
				{
					"attributes":{
						"POSITION":10,
						"NORMAL":11,
						"TEXCOORD_0":12,
						"TEXCOORD_1":13
					},
					"indices":14,
					"material":0
				},
				{
					"attributes":{
						"POSITION":15,
						"NORMAL":16,
						"TEXCOORD_0":17,
						"TEXCOORD_1":18
					},
					"indices":19,
					"material":0
				}
			]
		}
	],
	"textures":[
		{
			"sampler":0,
			"source":0
		},
		{
			"sampler":0,
			"source":1
		}
	],
	"images":[
		{
			"mimeType":"image/png",
			"name":"Cube.005_t",
			"uri":"Cube.005_t.png"
		},
		{
			"mimeType":"image/png",
			"name":"Cube.005_r",
			"uri":"Cube.005_r.png"
		}
	],
	"accessors":[
		{
			"bufferView":0,
			"componentType":5126,
			"count":32082,
			"max":[
				1.9212790727615356,
				1.430303931236267,
				0.40245765447616577
			],
			"min":[
				-1.9212790727615356,
				-1.430303931236267,
				-0.402035117149353
			],
			"type":"VEC3"
		},
		{
			"bufferView":1,
			"componentType":5126,
			"count":32082,
			"type":"VEC3"
		},
		{
			"bufferView":2,
			"componentType":5126,
			"count":32082,
			"type":"VEC2"
		},
		{
			"bufferView":3,
			"componentType":5126,
			"count":32082,
			"type":"VEC2"
		},
		{
			"bufferView":4,
			"componentType":5123,
			"count":90486,
			"type":"SCALAR"
		},
		{
			"bufferView":5,
			"componentType":5126,
			"count":22572,
			"max":[
				1.0281460285186768,
				1.0342832803726196,
				0.3141683042049408
			],
			"min":[
				-1.0456516742706299,
				-1.0688238143920898,
				0.10996891558170319
			],
			"type":"VEC3"
		},
		{
			"bufferView":6,
			"componentType":5126,
			"count":22572,
			"type":"VEC3"
		},
		{
			"bufferView":7,
			"componentType":5126,
			"count":22572,
			"type":"VEC2"
		},
		{
			"bufferView":8,
			"componentType":5126,
			"count":22572,
			"type":"VEC2"
		},
		{
			"bufferView":9,
			"componentType":5123,
			"count":95040,
			"type":"SCALAR"
		},
		{
			"bufferView":10,
			"componentType":5126,
			"count":6077,
			"max":[
				0.9283122420310974,
				0.9141168594360352,
				0.4344160258769989
			],
			"min":[
				-0.973181426525116,
				-0.9070607423782349,
				0.40302982926368713
			],
			"type":"VEC3"
		},
		{
			"bufferView":11,
			"componentType":5126,
			"count":6077,
			"type":"VEC3"
		},
		{
			"bufferView":12,
			"componentType":5126,
			"count":6077,
			"type":"VEC2"
		},
		{
			"bufferView":13,
			"componentType":5126,
			"count":6077,
			"type":"VEC2"
		},
		{
			"bufferView":14,
			"componentType":5123,
			"count":22206,
			"type":"SCALAR"
		},
		{
			"bufferView":15,
			"componentType":5126,
			"count":1529,
			"max":[
				0.9274345636367798,
				0.9105497598648071,
				0.4350239038467407
			],
			"min":[
				-0.9696142673492432,
				-0.9034936428070068,
				0.4324055016040802
			],
			"type":"VEC3"
		},
		{
			"bufferView":16,
			"componentType":5126,
			"count":1529,
			"type":"VEC3"
		},
		{
			"bufferView":17,
			"componentType":5126,
			"count":1529,
			"type":"VEC2"
		},
		{
			"bufferView":18,
			"componentType":5126,
			"count":1529,
			"type":"VEC2"
		},
		{
			"bufferView":19,
			"componentType":5123,
			"count":6342,
			"type":"SCALAR"
		}
	],
	"bufferViews":[
		{
			"buffer":0,
			"byteLength":384984,
			"byteOffset":0,
			"target":34962
		},
		{
			"buffer":0,
			"byteLength":384984,
			"byteOffset":384984,
			"target":34962
		},
		{
			"buffer":0,
			"byteLength":256656,
			"byteOffset":769968,
			"target":34962
		},
		{
			"buffer":0,
			"byteLength":256656,
			"byteOffset":1026624,
			"target":34962
		},
		{
			"buffer":0,
			"byteLength":180972,
			"byteOffset":1283280,
			"target":34963
		},
		{
			"buffer":0,
			"byteLength":270864,
			"byteOffset":1464252,
			"target":34962
		},
		{
			"buffer":0,
			"byteLength":270864,
			"byteOffset":1735116,
			"target":34962
		},
		{
			"buffer":0,
			"byteLength":180576,
			"byteOffset":2005980,
			"target":34962
		},
		{
			"buffer":0,
			"byteLength":180576,
			"byteOffset":2186556,
			"target":34962
		},
		{
			"buffer":0,
			"byteLength":190080,
			"byteOffset":2367132,
			"target":34963
		},
		{
			"buffer":0,
			"byteLength":72924,
			"byteOffset":2557212,
			"target":34962
		},
		{
			"buffer":0,
			"byteLength":72924,
			"byteOffset":2630136,
			"target":34962
		},
		{
			"buffer":0,
			"byteLength":48616,
			"byteOffset":2703060,
			"target":34962
		},
		{
			"buffer":0,
			"byteLength":48616,
			"byteOffset":2751676,
			"target":34962
		},
		{
			"buffer":0,
			"byteLength":44412,
			"byteOffset":2800292,
			"target":34963
		},
		{
			"buffer":0,
			"byteLength":18348,
			"byteOffset":2844704,
			"target":34962
		},
		{
			"buffer":0,
			"byteLength":18348,
			"byteOffset":2863052,
			"target":34962
		},
		{
			"buffer":0,
			"byteLength":12232,
			"byteOffset":2881400,
			"target":34962
		},
		{
			"buffer":0,
			"byteLength":12232,
			"byteOffset":2893632,
			"target":34962
		},
		{
			"buffer":0,
			"byteLength":12684,
			"byteOffset":2905864,
			"target":34963
		}
	],
	"samplers":[
		{
			"magFilter":9729,
			"minFilter":9987
		}
	],
	"buffers":[
		{
			"byteLength":2918548,
			"uri":"Natural.bin"
		}
	]
}
