{
	"asset":{
		"generator":"Khronos glTF Blender I/O v5.1.20",
		"version":"2.0"
	},
	"scene":0,
	"scenes":[
		{
			"name":"Scene",
			"nodes":[
				0
			]
		}
	],
	"nodes":[
		{
			"mesh":0,
			"name":"Plane.007",
			"rotation":[
				0.6619765162467957,
				0,
				0,
				0.7495245933532715
			],
			"translation":[
				-1.621246337890625e-05,
				0.008094431832432747,
				0.2547059953212738
			]
		}
	],
	"materials":[
		{
			"doubleSided":true,
			"name":"Plane.007_BAKED",
			"pbrMetallicRoughness":{
				"baseColorTexture":{
					"index":0,
					"texCoord":2
				},
				"metallicFactor":0,
				"metallicRoughnessTexture":{
					"index":1,
					"texCoord":2
				}
			}
		}
	],
	"meshes":[
		{
			"name":"Plane.011",
			"primitives":[
				{
					"attributes":{
						"POSITION":0,
						"NORMAL":1,
						"TEXCOORD_0":2,
						"TEXCOORD_1":3,
						"TEXCOORD_2":4
					},
					"indices":5,
					"material":0
				},
				{
					"attributes":{
						"POSITION":6,
						"NORMAL":7,
						"TEXCOORD_0":8,
						"TEXCOORD_1":9,
						"TEXCOORD_2":10
					},
					"indices":11,
					"material":0
				},
				{
					"attributes":{
						"POSITION":12,
						"NORMAL":13,
						"TEXCOORD_0":14,
						"TEXCOORD_1":15,
						"TEXCOORD_2":16
					},
					"indices":17,
					"material":0
				},
				{
					"attributes":{
						"POSITION":18,
						"NORMAL":19,
						"TEXCOORD_0":20,
						"TEXCOORD_1":21,
						"TEXCOORD_2":22
					},
					"indices":23,
					"material":0
				},
				{
					"attributes":{
						"POSITION":24,
						"NORMAL":25,
						"TEXCOORD_0":26,
						"TEXCOORD_1":27,
						"TEXCOORD_2":28
					},
					"indices":29,
					"material":0
				}
			]
		}
	],
	"textures":[
		{
			"sampler":0,
			"source":0
		},
		{
			"sampler":0,
			"source":1
		}
	],
	"images":[
		{
			"mimeType":"image/png",
			"name":"Plane",
			"uri":"Plane.png"
		},
		{
			"mimeType":"image/png",
			"name":"Plane",
			"uri":"Plane-1.png"
		}
	],
	"accessors":[
		{
			"bufferView":0,
			"componentType":5126,
			"count":27754,
			"max":[
				0.5635735392570496,
				0.08194942772388458,
				0.3416665494441986
			],
			"min":[
				-0.5635735392570496,
				-0.13522624969482422,
				-0.2866279184818268
			],
			"type":"VEC3"
		},
		{
			"bufferView":1,
			"componentType":5126,
			"count":27754,
			"type":"VEC3"
		},
		{
			"bufferView":2,
			"componentType":5126,
			"count":27754,
			"type":"VEC2"
		},
		{
			"bufferView":3,
			"componentType":5126,
			"count":27754,
			"type":"VEC2"
		},
		{
			"bufferView":4,
			"componentType":5126,
			"count":27754,
			"type":"VEC2"
		},
		{
			"bufferView":5,
			"componentType":5123,
			"count":80634,
			"type":"SCALAR"
		},
		{
			"bufferView":6,
			"componentType":5126,
			"count":84019,
			"max":[
				0.4775020480155945,
				0,
				0.2353793829679489
			],
			"min":[
				-0.47624364495277405,
				-0.05301865190267563,
				-0.13427762687206268
			],
			"type":"VEC3"
		},
		{
			"bufferView":7,
			"componentType":5126,
			"count":84019,
			"type":"VEC3"
		},
		{
			"bufferView":8,
			"componentType":5126,
			"count":84019,
			"type":"VEC2"
		},
		{
			"bufferView":9,
			"componentType":5126,
			"count":84019,
			"type":"VEC2"
		},
		{
			"bufferView":10,
			"componentType":5126,
			"count":84019,
			"type":"VEC2"
		},
		{
			"bufferView":11,
			"componentType":5125,
			"count":240702,
			"type":"SCALAR"
		},
		{
			"bufferView":12,
			"componentType":5126,
			"count":5635,
			"max":[
				0.17731600999832153,
				0.01722002401947975,
				0.26801013946533203
			],
			"min":[
				-0.4714110195636749,
				-0.06354321539402008,
				-0.2399500459432602
			],
			"type":"VEC3"
		},
		{
			"bufferView":13,
			"componentType":5126,
			"count":5635,
			"type":"VEC3"
		},
		{
			"bufferView":14,
			"componentType":5126,
			"count":5635,
			"type":"VEC2"
		},
		{
			"bufferView":15,
			"componentType":5126,
			"count":5635,
			"type":"VEC2"
		},
		{
			"bufferView":16,
			"componentType":5126,
			"count":5635,
			"type":"VEC2"
		},
		{
			"bufferView":17,
			"componentType":5123,
			"count":11808,
			"type":"SCALAR"
		},
		{
			"bufferView":18,
			"componentType":5126,
			"count":277,
			"max":[
				0.17695409059524536,
				0.017518064007163048,
				-0.07945568859577179
			],
			"min":[
				0.07584692537784576,
				0.008464980870485306,
				-0.2364179790019989
			],
			"type":"VEC3"
		},
		{
			"bufferView":19,
			"componentType":5126,
			"count":277,
			"type":"VEC3"
		},
		{
			"bufferView":20,
			"componentType":5126,
			"count":277,
			"type":"VEC2"
		},
		{
			"bufferView":21,
			"componentType":5126,
			"count":277,
			"type":"VEC2"
		},
		{
			"bufferView":22,
			"componentType":5126,
			"count":277,
			"type":"VEC2"
		},
		{
			"bufferView":23,
			"componentType":5123,
			"count":1074,
			"type":"SCALAR"
		},
		{
			"bufferView":24,
			"componentType":5126,
			"count":1620,
			"max":[
				0.05030018091201782,
				0.017792407423257828,
				0.26724570989608765
			],
			"min":[
				-0.4706769585609436,
				0.00799410231411457,
				-0.07336197793483734
			],
			"type":"VEC3"
		},
		{
			"bufferView":25,
			"componentType":5126,
			"count":1620,
			"type":"VEC3"
		},
		{
			"bufferView":26,
			"componentType":5126,
			"count":1620,
			"type":"VEC2"
		},
		{
			"bufferView":27,
			"componentType":5126,
			"count":1620,
			"type":"VEC2"
		},
		{
			"bufferView":28,
			"componentType":5126,
			"count":1620,
			"type":"VEC2"
		},
		{
			"bufferView":29,
			"componentType":5123,
			"count":2910,
			"type":"SCALAR"
		}
	],
	"bufferViews":[
		{
			"buffer":0,
			"byteLength":333048,
			"byteOffset":0,
			"target":34962
		},
		{
			"buffer":0,
			"byteLength":333048,
			"byteOffset":333048,
			"target":34962
		},
		{
			"buffer":0,
			"byteLength":222032,
			"byteOffset":666096,
			"target":34962
		},
		{
			"buffer":0,
			"byteLength":222032,
			"byteOffset":888128,
			"target":34962
		},
		{
			"buffer":0,
			"byteLength":222032,
			"byteOffset":1110160,
			"target":34962
		},
		{
			"buffer":0,
			"byteLength":161268,
			"byteOffset":1332192,
			"target":34963
		},
		{
			"buffer":0,
			"byteLength":1008228,
			"byteOffset":1493460,
			"target":34962
		},
		{
			"buffer":0,
			"byteLength":1008228,
			"byteOffset":2501688,
			"target":34962
		},
		{
			"buffer":0,
			"byteLength":672152,
			"byteOffset":3509916,
			"target":34962
		},
		{
			"buffer":0,
			"byteLength":672152,
			"byteOffset":4182068,
			"target":34962
		},
		{
			"buffer":0,
			"byteLength":672152,
			"byteOffset":4854220,
			"target":34962
		},
		{
			"buffer":0,
			"byteLength":962808,
			"byteOffset":5526372,
			"target":34963
		},
		{
			"buffer":0,
			"byteLength":67620,
			"byteOffset":6489180,
			"target":34962
		},
		{
			"buffer":0,
			"byteLength":67620,
			"byteOffset":6556800,
			"target":34962
		},
		{
			"buffer":0,
			"byteLength":45080,
			"byteOffset":6624420,
			"target":34962
		},
		{
			"buffer":0,
			"byteLength":45080,
			"byteOffset":6669500,
			"target":34962
		},
		{
			"buffer":0,
			"byteLength":45080,
			"byteOffset":6714580,
			"target":34962
		},
		{
			"buffer":0,
			"byteLength":23616,
			"byteOffset":6759660,
			"target":34963
		},
		{
			"buffer":0,
			"byteLength":3324,
			"byteOffset":6783276,
			"target":34962
		},
		{
			"buffer":0,
			"byteLength":3324,
			"byteOffset":6786600,
			"target":34962
		},
		{
			"buffer":0,
			"byteLength":2216,
			"byteOffset":6789924,
			"target":34962
		},
		{
			"buffer":0,
			"byteLength":2216,
			"byteOffset":6792140,
			"target":34962
		},
		{
			"buffer":0,
			"byteLength":2216,
			"byteOffset":6794356,
			"target":34962
		},
		{
			"buffer":0,
			"byteLength":2148,
			"byteOffset":6796572,
			"target":34963
		},
		{
			"buffer":0,
			"byteLength":19440,
			"byteOffset":6798720,
			"target":34962
		},
		{
			"buffer":0,
			"byteLength":19440,
			"byteOffset":6818160,
			"target":34962
		},
		{
			"buffer":0,
			"byteLength":12960,
			"byteOffset":6837600,
			"target":34962
		},
		{
			"buffer":0,
			"byteLength":12960,
			"byteOffset":6850560,
			"target":34962
		},
		{
			"buffer":0,
			"byteLength":12960,
			"byteOffset":6863520,
			"target":34962
		},
		{
			"buffer":0,
			"byteLength":5820,
			"byteOffset":6876480,
			"target":34963
		}
	],
	"samplers":[
		{
			"magFilter":9729,
			"minFilter":9987
		}
	],
	"buffers":[
		{
			"byteLength":6882300,
			"uri":"Walnut.bin"
		}
	]
}
