{
	"asset":{
		"generator":"Khronos glTF Blender I/O v5.1.20",
		"version":"2.0"
	},
	"extensionsUsed":[
		"KHR_materials_specular"
	],
	"scene":0,
	"scenes":[
		{
			"name":"Scene",
			"nodes":[
				0,
				3,
				4
			]
		}
	],
	"nodes":[
		{
			"mesh":0,
			"name":"pCube13",
			"rotation":[
				0.70710688829422,
				0,
				0,
				0.7071066498756409
			],
			"scale":[
				0.30722111463546753,
				0.30722108483314514,
				0.307220995426178
			],
			"translation":[
				-1.621246337890625e-05,
				-0.2609839141368866,
				0.0005789464339613914
			]
		},
		{
			"mesh":1,
			"name":"Curve.010",
			"rotation":[
				0,
				-0.7071068286895752,
				0.7071068286895752,
				1.152023614281461e-07
			],
			"scale":[
				1.0953648090362549,
				1.0953648090362549,
				1.0953648090362549
			],
			"translation":[
				0,
				-0.6775060296058655,
				-0.0686880573630333
			]
		},
		{
			"mesh":2,
			"name":"polySurface15",
			"rotation":[
				0.70710688829422,
				0,
				0,
				0.7071066498756409
			],
			"translation":[
				0.4016285836696625,
				0.5530756711959839,
				0.10726742446422577
			]
		},
		{
			"children":[
				1,
				2
			],
			"mesh":3,
			"name":"Cube.022",
			"rotation":[
				-0.04361940175294876,
				0,
				0,
				0.9990482926368713
			],
			"scale":[
				0.30722111463546753,
				0.30722102522850037,
				0.3072211742401123
			],
			"translation":[
				0,
				0,
				-0.025209199637174606
			]
		},
		{
			"mesh":4,
			"name":"Plane.005",
			"rotation":[
				0.6709873676300049,
				0,
				0,
				0.7414687871932983
			],
			"translation":[
				-0.2147044688463211,
				-0.08949952572584152,
				0.032103411853313446
			]
		}
	],
	"animations":[
		{
			"channels":[
				{
					"sampler":0,
					"target":{
						"node":0,
						"path":"translation"
					}
				},
				{
					"sampler":1,
					"target":{
						"node":0,
						"path":"rotation"
					}
				},
				{
					"sampler":2,
					"target":{
						"node":0,
						"path":"scale"
					}
				},
				{
					"sampler":3,
					"target":{
						"node":3,
						"path":"translation"
					}
				},
				{
					"sampler":4,
					"target":{
						"node":3,
						"path":"rotation"
					}
				},
				{
					"sampler":5,
					"target":{
						"node":3,
						"path":"scale"
					}
				},
				{
					"sampler":6,
					"target":{
						"node":1,
						"path":"translation"
					}
				},
				{
					"sampler":7,
					"target":{
						"node":1,
						"path":"rotation"
					}
				},
				{
					"sampler":8,
					"target":{
						"node":1,
						"path":"scale"
					}
				},
				{
					"sampler":9,
					"target":{
						"node":2,
						"path":"translation"
					}
				},
				{
					"sampler":10,
					"target":{
						"node":2,
						"path":"rotation"
					}
				},
				{
					"sampler":11,
					"target":{
						"node":2,
						"path":"scale"
					}
				},
				{
					"sampler":12,
					"target":{
						"node":4,
						"path":"translation"
					}
				},
				{
					"sampler":13,
					"target":{
						"node":4,
						"path":"rotation"
					}
				},
				{
					"sampler":14,
					"target":{
						"node":4,
						"path":"scale"
					}
				}
			],
			"name":"Animation",
			"samplers":[
				{
					"input":32,
					"interpolation":"STEP",
					"output":33
				},
				{
					"input":32,
					"interpolation":"STEP",
					"output":34
				},
				{
					"input":32,
					"interpolation":"STEP",
					"output":35
				},
				{
					"input":32,
					"interpolation":"STEP",
					"output":36
				},
				{
					"input":32,
					"interpolation":"STEP",
					"output":37
				},
				{
					"input":32,
					"interpolation":"STEP",
					"output":38
				},
				{
					"input":32,
					"interpolation":"STEP",
					"output":39
				},
				{
					"input":32,
					"interpolation":"STEP",
					"output":40
				},
				{
					"input":32,
					"interpolation":"STEP",
					"output":41
				},
				{
					"input":32,
					"interpolation":"STEP",
					"output":42
				},
				{
					"input":32,
					"interpolation":"STEP",
					"output":43
				},
				{
					"input":32,
					"interpolation":"STEP",
					"output":44
				},
				{
					"input":45,
					"interpolation":"STEP",
					"output":46
				},
				{
					"input":45,
					"interpolation":"STEP",
					"output":47
				},
				{
					"input":45,
					"interpolation":"STEP",
					"output":48
				}
			]
		}
	],
	"materials":[
		{
			"doubleSided":true,
			"name":"pCube13_BAKED.001",
			"pbrMetallicRoughness":{
				"baseColorTexture":{
					"index":0,
					"texCoord":1
				},
				"metallicFactor":0,
				"roughnessFactor":0.5
			}
		},
		{
			"doubleSided":true,
			"name":"Material.008",
			"pbrMetallicRoughness":{
				"baseColorFactor":[
					1,
					0.6763762831687927,
					0.41530099511146545,
					1
				],
				"metallicFactor":0,
				"roughnessFactor":0.5
			}
		},
		{
			"doubleSided":true,
			"name":"Material.011",
			"pbrMetallicRoughness":{
				"baseColorFactor":[
					0.010022366419434547,
					0.010022366419434547,
					0.010022366419434547,
					1
				],
				"metallicFactor":0,
				"roughnessFactor":0.7633587718009949
			}
		},
		{
			"doubleSided":true,
			"name":"Material.012",
			"pbrMetallicRoughness":{
				"baseColorFactor":[
					0.01960567943751812,
					0.01960567943751812,
					0.01960567943751812,
					1
				],
				"metallicFactor":0,
				"roughnessFactor":0.11450381577014923
			}
		},
		{
			"doubleSided":true,
			"name":"Cube.022_BAKED.003",
			"pbrMetallicRoughness":{
				"baseColorTexture":{
					"index":1,
					"texCoord":1
				},
				"metallicFactor":0,
				"roughnessFactor":0.5
			}
		},
		{
			"doubleSided":true,
			"extensions":{
				"KHR_materials_specular":{
					"specularTexture":{
						"index":2,
						"texCoord":1
					}
				}
			},
			"name":"Plane.005_BAKED.002",
			"pbrMetallicRoughness":{
				"baseColorTexture":{
					"index":3,
					"texCoord":1
				},
				"metallicFactor":0,
				"roughnessFactor":0.5
			}
		}
	],
	"meshes":[
		{
			"name":"Mesh.002",
			"primitives":[
				{
					"attributes":{
						"POSITION":0,
						"NORMAL":1,
						"TEXCOORD_0":2,
						"TEXCOORD_1":3
					},
					"indices":4,
					"material":0
				}
			]
		},
		{
			"name":"Curve.001",
			"primitives":[
				{
					"attributes":{
						"POSITION":5,
						"NORMAL":6,
						"TEXCOORD_0":7
					},
					"indices":8,
					"material":1
				}
			]
		},
		{
			"name":"Mesh.003",
			"primitives":[
				{
					"attributes":{
						"POSITION":9,
						"NORMAL":10,
						"TEXCOORD_0":11
					},
					"indices":12,
					"material":2
				},
				{
					"attributes":{
						"POSITION":13,
						"NORMAL":14,
						"TEXCOORD_0":15
					},
					"indices":16,
					"material":3
				}
			]
		},
		{
			"name":"Cube.002",
			"primitives":[
				{
					"attributes":{
						"POSITION":17,
						"NORMAL":18,
						"TEXCOORD_0":19,
						"TEXCOORD_1":20
					},
					"indices":21,
					"material":4
				}
			]
		},
		{
			"name":"Plane.003",
			"primitives":[
				{
					"attributes":{
						"POSITION":22,
						"NORMAL":23,
						"TEXCOORD_0":24,
						"TEXCOORD_1":25
					},
					"indices":26,
					"material":5
				},
				{
					"attributes":{
						"POSITION":27,
						"NORMAL":28,
						"TEXCOORD_0":29,
						"TEXCOORD_1":30
					},
					"indices":31,
					"material":5
				}
			]
		}
	],
	"textures":[
		{
			"sampler":0,
			"source":0
		},
		{
			"sampler":0,
			"source":1
		},
		{
			"sampler":0,
			"source":2
		},
		{
			"sampler":0,
			"source":3
		}
	],
	"images":[
		{
			"mimeType":"image/png",
			"name":"pCube13_t",
			"uri":"pCube13_t.png"
		},
		{
			"mimeType":"image/png",
			"name":"Cube",
			"uri":"Cube.png"
		},
		{
			"mimeType":"image/png",
			"name":"Plane",
			"uri":"Plane.png"
		},
		{
			"mimeType":"image/png",
			"name":"Plane.005_t",
			"uri":"Plane.005_t.png"
		}
	],
	"accessors":[
		{
			"bufferView":0,
			"componentType":5126,
			"count":588,
			"max":[
				1.8378061056137085,
				0.34029921889305115,
				0.17722134292125702
			],
			"min":[
				-1.8378061056137085,
				-0.34029921889305115,
				-0.10137586295604706
			],
			"type":"VEC3"
		},
		{
			"bufferView":1,
			"componentType":5126,
			"count":588,
			"type":"VEC3"
		},
		{
			"bufferView":2,
			"componentType":5126,
			"count":588,
			"type":"VEC2"
		},
		{
			"bufferView":3,
			"componentType":5126,
			"count":588,
			"type":"VEC2"
		},
		{
			"bufferView":4,
			"componentType":5123,
			"count":1860,
			"type":"SCALAR"
		},
		{
			"bufferView":5,
			"componentType":5126,
			"count":8513,
			"max":[
				0.22294341027736664,
				0.02007816731929779,
				0.12539832293987274
			],
			"min":[
				-0.1589893102645874,
				-0.01992185227572918,
				-0.15192992985248566
			],
			"type":"VEC3"
		},
		{
			"bufferView":6,
			"componentType":5126,
			"count":8513,
			"type":"VEC3"
		},
		{
			"bufferView":7,
			"componentType":5126,
			"count":8513,
			"type":"VEC2"
		},
		{
			"bufferView":8,
			"componentType":5123,
			"count":23082,
			"type":"SCALAR"
		},
		{
			"bufferView":9,
			"componentType":5126,
			"count":926,
			"max":[
				0.1657291203737259,
				0.04169068858027458,
				0.24992816150188446
			],
			"min":[
				-0.1657291203737259,
				-0.2363307625055313,
				-0.2539600431919098
			],
			"type":"VEC3"
		},
		{
			"bufferView":10,
			"componentType":5126,
			"count":926,
			"type":"VEC3"
		},
		{
			"bufferView":11,
			"componentType":5126,
			"count":926,
			"type":"VEC2"
		},
		{
			"bufferView":12,
			"componentType":5123,
			"count":4350,
			"type":"SCALAR"
		},
		{
			"bufferView":13,
			"componentType":5126,
			"count":255,
			"max":[
				0.16455112397670746,
				0.04295280575752258,
				0.24860753118991852
			],
			"min":[
				-0.16455109417438507,
				0.020469043403863907,
				-0.24246323108673096
			],
			"type":"VEC3"
		},
		{
			"bufferView":14,
			"componentType":5126,
			"count":255,
			"type":"VEC3"
		},
		{
			"bufferView":15,
			"componentType":5126,
			"count":255,
			"type":"VEC2"
		},
		{
			"bufferView":16,
			"componentType":5123,
			"count":1074,
			"type":"SCALAR"
		},
		{
			"bufferView":17,
			"componentType":5126,
			"count":106673,
			"max":[
				1.835702896118164,
				0.9104412198066711,
				0.08116781711578369
			],
			"min":[
				-1.835702896118164,
				-0.9104412198066711,
				-0.08116781711578369
			],
			"type":"VEC3"
		},
		{
			"bufferView":18,
			"componentType":5126,
			"count":106673,
			"type":"VEC3"
		},
		{
			"bufferView":19,
			"componentType":5126,
			"count":106673,
			"type":"VEC2"
		},
		{
			"bufferView":20,
			"componentType":5126,
			"count":106673,
			"type":"VEC2"
		},
		{
			"bufferView":21,
			"componentType":5125,
			"count":292536,
			"type":"SCALAR"
		},
		{
			"bufferView":22,
			"componentType":5126,
			"count":2329,
			"max":[
				0.26099294424057007,
				-0.00012014235835522413,
				0.16684837639331818
			],
			"min":[
				-0.26196375489234924,
				-0.08634679019451141,
				-0.17539171874523163
			],
			"type":"VEC3"
		},
		{
			"bufferView":23,
			"componentType":5126,
			"count":2329,
			"type":"VEC3"
		},
		{
			"bufferView":24,
			"componentType":5126,
			"count":2329,
			"type":"VEC2"
		},
		{
			"bufferView":25,
			"componentType":5126,
			"count":2329,
			"type":"VEC2"
		},
		{
			"bufferView":26,
			"componentType":5123,
			"count":10098,
			"type":"SCALAR"
		},
		{
			"bufferView":27,
			"componentType":5126,
			"count":610,
			"max":[
				0.2604438066482544,
				0.0006443088059313595,
				0.1660839319229126
			],
			"min":[
				-0.2605028748512268,
				-0.011758735403418541,
				-0.1745237410068512
			],
			"type":"VEC3"
		},
		{
			"bufferView":28,
			"componentType":5126,
			"count":610,
			"type":"VEC3"
		},
		{
			"bufferView":29,
			"componentType":5126,
			"count":610,
			"type":"VEC2"
		},
		{
			"bufferView":30,
			"componentType":5126,
			"count":610,
			"type":"VEC2"
		},
		{
			"bufferView":31,
			"componentType":5123,
			"count":2922,
			"type":"SCALAR"
		},
		{
			"bufferView":32,
			"componentType":5126,
			"count":2,
			"max":[
				8.333333333333334
			],
			"min":[
				0
			],
			"type":"SCALAR"
		},
		{
			"bufferView":33,
			"componentType":5126,
			"count":2,
			"type":"VEC3"
		},
		{
			"bufferView":34,
			"componentType":5126,
			"count":2,
			"type":"VEC4"
		},
		{
			"bufferView":35,
			"componentType":5126,
			"count":2,
			"type":"VEC3"
		},
		{
			"bufferView":36,
			"componentType":5126,
			"count":2,
			"type":"VEC3"
		},
		{
			"bufferView":37,
			"componentType":5126,
			"count":2,
			"type":"VEC4"
		},
		{
			"bufferView":38,
			"componentType":5126,
			"count":2,
			"type":"VEC3"
		},
		{
			"bufferView":39,
			"componentType":5126,
			"count":2,
			"type":"VEC3"
		},
		{
			"bufferView":40,
			"componentType":5126,
			"count":2,
			"type":"VEC4"
		},
		{
			"bufferView":41,
			"componentType":5126,
			"count":2,
			"type":"VEC3"
		},
		{
			"bufferView":42,
			"componentType":5126,
			"count":2,
			"type":"VEC3"
		},
		{
			"bufferView":43,
			"componentType":5126,
			"count":2,
			"type":"VEC4"
		},
		{
			"bufferView":44,
			"componentType":5126,
			"count":2,
			"type":"VEC3"
		},
		{
			"bufferView":45,
			"componentType":5126,
			"count":2,
			"max":[
				8.333333333333334
			],
			"min":[
				0.041666666666666664
			],
			"type":"SCALAR"
		},
		{
			"bufferView":46,
			"componentType":5126,
			"count":2,
			"type":"VEC3"
		},
		{
			"bufferView":47,
			"componentType":5126,
			"count":2,
			"type":"VEC4"
		},
		{
			"bufferView":48,
			"componentType":5126,
			"count":2,
			"type":"VEC3"
		}
	],
	"bufferViews":[
		{
			"buffer":0,
			"byteLength":7056,
			"byteOffset":0,
			"target":34962
		},
		{
			"buffer":0,
			"byteLength":7056,
			"byteOffset":7056,
			"target":34962
		},
		{
			"buffer":0,
			"byteLength":4704,
			"byteOffset":14112,
			"target":34962
		},
		{
			"buffer":0,
			"byteLength":4704,
			"byteOffset":18816,
			"target":34962
		},
		{
			"buffer":0,
			"byteLength":3720,
			"byteOffset":23520,
			"target":34963
		},
		{
			"buffer":0,
			"byteLength":102156,
			"byteOffset":27240,
			"target":34962
		},
		{
			"buffer":0,
			"byteLength":102156,
			"byteOffset":129396,
			"target":34962
		},
		{
			"buffer":0,
			"byteLength":68104,
			"byteOffset":231552,
			"target":34962
		},
		{
			"buffer":0,
			"byteLength":46164,
			"byteOffset":299656,
			"target":34963
		},
		{
			"buffer":0,
			"byteLength":11112,
			"byteOffset":345820,
			"target":34962
		},
		{
			"buffer":0,
			"byteLength":11112,
			"byteOffset":356932,
			"target":34962
		},
		{
			"buffer":0,
			"byteLength":7408,
			"byteOffset":368044,
			"target":34962
		},
		{
			"buffer":0,
			"byteLength":8700,
			"byteOffset":375452,
			"target":34963
		},
		{
			"buffer":0,
			"byteLength":3060,
			"byteOffset":384152,
			"target":34962
		},
		{
			"buffer":0,
			"byteLength":3060,
			"byteOffset":387212,
			"target":34962
		},
		{
			"buffer":0,
			"byteLength":2040,
			"byteOffset":390272,
			"target":34962
		},
		{
			"buffer":0,
			"byteLength":2148,
			"byteOffset":392312,
			"target":34963
		},
		{
			"buffer":0,
			"byteLength":1280076,
			"byteOffset":394460,
			"target":34962
		},
		{
			"buffer":0,
			"byteLength":1280076,
			"byteOffset":1674536,
			"target":34962
		},
		{
			"buffer":0,
			"byteLength":853384,
			"byteOffset":2954612,
			"target":34962
		},
		{
			"buffer":0,
			"byteLength":853384,
			"byteOffset":3807996,
			"target":34962
		},
		{
			"buffer":0,
			"byteLength":1170144,
			"byteOffset":4661380,
			"target":34963
		},
		{
			"buffer":0,
			"byteLength":27948,
			"byteOffset":5831524,
			"target":34962
		},
		{
			"buffer":0,
			"byteLength":27948,
			"byteOffset":5859472,
			"target":34962
		},
		{
			"buffer":0,
			"byteLength":18632,
			"byteOffset":5887420,
			"target":34962
		},
		{
			"buffer":0,
			"byteLength":18632,
			"byteOffset":5906052,
			"target":34962
		},
		{
			"buffer":0,
			"byteLength":20196,
			"byteOffset":5924684,
			"target":34963
		},
		{
			"buffer":0,
			"byteLength":7320,
			"byteOffset":5944880,
			"target":34962
		},
		{
			"buffer":0,
			"byteLength":7320,
			"byteOffset":5952200,
			"target":34962
		},
		{
			"buffer":0,
			"byteLength":4880,
			"byteOffset":5959520,
			"target":34962
		},
		{
			"buffer":0,
			"byteLength":4880,
			"byteOffset":5964400,
			"target":34962
		},
		{
			"buffer":0,
			"byteLength":5844,
			"byteOffset":5969280,
			"target":34963
		},
		{
			"buffer":0,
			"byteLength":8,
			"byteOffset":5975124
		},
		{
			"buffer":0,
			"byteLength":24,
			"byteOffset":5975132
		},
		{
			"buffer":0,
			"byteLength":32,
			"byteOffset":5975156
		},
		{
			"buffer":0,
			"byteLength":24,
			"byteOffset":5975188
		},
		{
			"buffer":0,
			"byteLength":24,
			"byteOffset":5975212
		},
		{
			"buffer":0,
			"byteLength":32,
			"byteOffset":5975236
		},
		{
			"buffer":0,
			"byteLength":24,
			"byteOffset":5975268
		},
		{
			"buffer":0,
			"byteLength":24,
			"byteOffset":5975292
		},
		{
			"buffer":0,
			"byteLength":32,
			"byteOffset":5975316
		},
		{
			"buffer":0,
			"byteLength":24,
			"byteOffset":5975348
		},
		{
			"buffer":0,
			"byteLength":24,
			"byteOffset":5975372
		},
		{
			"buffer":0,
			"byteLength":32,
			"byteOffset":5975396
		},
		{
			"buffer":0,
			"byteLength":24,
			"byteOffset":5975428
		},
		{
			"buffer":0,
			"byteLength":8,
			"byteOffset":5975452
		},
		{
			"buffer":0,
			"byteLength":24,
			"byteOffset":5975460
		},
		{
			"buffer":0,
			"byteLength":32,
			"byteOffset":5975484
		},
		{
			"buffer":0,
			"byteLength":24,
			"byteOffset":5975516
		}
	],
	"samplers":[
		{
			"magFilter":9729,
			"minFilter":9987
		}
	],
	"buffers":[
		{
			"byteLength":5975540,
			"uri":"PC.bin"
		}
	]
}
